PathFileType	4	(X/Y/Z)	/Users/itak/Documents/Research/Walk-IL/dataset/trc/00381_00012.trc
DataRate	CameraRate	NumFrames	NumMarkers	Units	OrigDataRate	OrigDataStartFrame	OrigNumFrames
100.000000	100.000000	4	54	mm	100.000000	60	487
Frame#	Time	RPSI			LPSI			L3			STRN			T10			C7			CLAV			RBAK			LBAK			LSHO			LUPA			LAEL			LAOL			LWTS			LWPS			LFRA			LHPS			LHTS			RSHO			RUPA			RAEL			RAOL			RWTS			RWPS			RFRA			RIFD			RHPS			RBHD			LFHD			RFHD			LBHD			LHIP			RASI			LASI			LKNE			LTHI			LANK			LTIP			LTOE			LMT1			LMT5			LHEE			RKNE			RTHI			RANK			RTIP			RTOE			RMT1			RMT5			RHEE			RHTS			RHIP			LIFD			*53			
		X1	Y1	Z1	X2	Y2	Z2	X3	Y3	Z3	X4	Y4	Z4	X5	Y5	Z5	X6	Y6	Z6	X7	Y7	Z7	X8	Y8	Z8	X9	Y9	Z9	X10	Y10	Z10	X11	Y11	Z11	X12	Y12	Z12	X13	Y13	Z13	X14	Y14	Z14	X15	Y15	Z15	X16	Y16	Z16	X17	Y17	Z17	X18	Y18	Z18	X19	Y19	Z19	X20	Y20	Z20	X21	Y21	Z21	X22	Y22	Z22	X23	Y23	Z23	X24	Y24	Z24	X25	Y25	Z25	X26	Y26	Z26	X27	Y27	Z27	X28	Y28	Z28	X29	Y29	Z29	X30	Y30	Z30	X31	Y31	Z31	X32	Y32	Z32	X33	Y33	Z33	X34	Y34	Z34	X35	Y35	Z35	X36	Y36	Z36	X37	Y37	Z37	X38	Y38	Z38	X39	Y39	Z39	X40	Y40	Z40	X41	Y41	Z41	X42	Y42	Z42	X43	Y43	Z43	X44	Y44	Z44	X45	Y45	Z45	X46	Y46	Z46	X47	Y47	Z47	X48	Y48	Z48	X49	Y49	Z49	X50	Y50	Z50	X51	Y51	Z51	X52	Y52	Z52	X53	Y53	Z53	X54	Y54	Z54	

61	0.6	-1584.047973632812	991.2161254882812	123.5423736572266	-1590.0107421875	981.7303466796875	-8.15467357635498	-1589.03271484375	1054.980590820312	59.50842666625977	-1359.687255859375	1222.817749023438	58.96514129638672	-1602.013793945312	1157.307983398438	55.67557144165039	-1577.673583984375	1408.275024414062	42.99148178100586	-1417.67529296875	1339.313598632812	56.25166702270508	-1614.042602539062	1260.44970703125	110.341926574707	-1586.587036132812	1370.408203125	-60.54469680786133	-1499.4140625	1390.524047851562	-108.1946563720703	-1518.14599609375	1271.9033203125	-178.3265380859375	-1492.786499023438	1076.67236328125	-204.0582580566406	-1549.043090820312	1051.961669921875	-144.8131408691406	-1380.649658203125	876.0730590820312	-151.0246124267578	-1422.34814453125	857.56689453125	-218.6472015380859	-1464.996459960938	975.4124755859375	-211.6403961181641	-1397.0537109375	774.4099731445312	-208.4164733886719	-1348.617431640625	782.2755126953125	-168.6794891357422	-1527.190673828125	1391.75390625	203.1783599853516	-1541.042358398438	1327.326293945312	261.8724975585938	-1533.625366210938	1068.3974609375	311.3726196289062	-1550.8291015625	1055.049682617188	218.2714538574219	-1396.2236328125	859.54345703125	295.4099426269531	-1440.241088867188	849.3539428710938	354.9806518554688	-1506.119140625	1004.950134277344	331.2430114746094	-1391.247924804688	686.986572265625	305.6982116699219	-1429.753784179688	759.8046875	359.0658264160156	-1542.013916015625	1605.489624023438	122.6804580688477	-1383.395874023438	1599.903442382812	0.2175152599811554	-1407.841064453125	1608.520751953125	120.2405166625977	-1526.39111328125	1592.5703125	-39.43209457397461	-1504.604736328125	968.6692504882812	-122.102668762207	-1366.854614257812	978.1066284179688	179.5097351074219	-1388.90234375	967.9884033203125	-84.79799652099609	-1464.954833984375	475.8160400390625	-96.55256652832031	-1468.97802734375	618.3322143554688	-110.7169876098633	-1562.458618164062	45.31026840209961	-49.06247711181641	-1515.036010742188	244.2752380371094	-85.02965545654297	-1346.48486328125	47.17414474487305	16.32586097717285	-1428.44677734375	45.04522323608398	46.08991241455078	-1434.99072265625	41.94612121582031	-59.557373046875	-1601.077026367188	41.94674301147461	7.502071857452393	-1470.871826171875	478.037353515625	219.6489562988281	-1423.933227539062	740.0321655273438	236.8017578125	-1517.526123046875	56.31186294555664	187.1676025390625	-1463.462158203125	352.3259582519531	205.4865875244141	-1338.789428710938	40.51237106323242	123.1003875732422	-1415.433837890625	46.21094512939453	94.18750762939453	-1433.965209960938	46.90205001831055	193.2201995849609	-1591.144409179688	44.76860046386719	134.7217102050781	-1372.021484375	757.33837890625	321.7521667480469	-1499.229858398438	966.76953125	236.90673828125	-1362.900756835938	697.7188110351562	-152.6758117675781	nan	nan	nan	
62	0.61	-1584.049072265625	991.2618408203125	123.4240264892578	-1590.002197265625	981.73095703125	-8.285734176635742	-1589.00390625	1054.9541015625	59.35817337036133	-1359.652587890625	1222.834838867188	58.88579559326172	-1601.994506835938	1157.276611328125	55.55670166015625	-1577.66943359375	1408.276611328125	42.91737747192383	-1417.658813476562	1339.331909179688	56.16727828979492	-1614.0048828125	1260.410400390625	110.2313461303711	-1586.561401367188	1370.411865234375	-60.61045455932617	-1499.400756835938	1390.543823242188	-108.2494506835938	-1518.165161132812	1271.915405273438	-178.4315185546875	-1492.75927734375	1076.689819335938	-204.1529388427734	-1548.979614257812	1051.969482421875	-144.9092102050781	-1380.607788085938	876.09912109375	-151.162353515625	-1422.322265625	857.5908813476562	-218.7951202392578	-1464.958740234375	975.4288940429688	-211.7629241943359	-1397.104736328125	774.4456176757812	-208.6363677978516	-1348.504150390625	782.2191772460938	-168.8199310302734	-1527.213623046875	1391.739868164062	203.1050872802734	-1541.080688476562	1327.310424804688	261.7899169921875	-1533.603881835938	1068.3720703125	311.322998046875	-1550.810668945312	1055.023315429688	218.2352600097656	-1396.164184570312	859.5528564453125	295.371826171875	-1440.195434570312	849.3699951171875	354.9964599609375	-1506.099243164062	1004.933654785156	331.2014770507812	-1390.88134765625	687.0476684570312	305.7839050292969	-1429.594848632812	759.8104858398438	359.0414733886719	-1541.998901367188	1605.485229492188	122.6616516113281	-1383.373901367188	1599.87451171875	0.2026755809783936	-1407.814086914062	1608.4794921875	120.2210159301758	-1526.342163085938	1592.599487304688	-39.45520782470703	-1504.634155273438	968.6640625	-122.2382125854492	-1366.825439453125	978.09375	179.3689422607422	-1388.902099609375	967.9581909179688	-84.79475402832031	-1464.926391601562	475.7878112792969	-96.65316009521484	-1469.0078125	618.3289184570312	-110.8408737182617	-1562.447021484375	45.25709533691406	-49.10391235351562	-1515.054565429688	244.2631530761719	-85.09919738769531	-1346.493530273438	47.17874526977539	16.32547760009766	-1428.419067382812	45.05691909790039	46.11574172973633	-1434.98828125	41.93381881713867	-59.55937194824219	-1601.082641601562	42.00340270996094	7.461662769317627	-1470.850952148438	478.0626220703125	219.5815734863281	-1423.922241210938	740.037841796875	236.7209320068359	-1517.517211914062	56.31205749511719	187.1522827148438	-1463.431030273438	352.3211059570312	205.4191741943359	-1338.79833984375	40.50730895996094	123.0977020263672	-1415.433471679688	46.20124053955078	94.18491363525391	-1433.956176757812	46.89803314208984	193.2205810546875	-1591.152709960938	44.78300857543945	134.7072143554688	-1372.130737304688	757.3125610351562	321.7057800292969	-1499.2529296875	966.7438354492188	236.8062438964844	-1362.7333984375	697.7561645507812	-152.8607940673828	nan	nan	nan	
63	0.62	-1584.047485351562	991.3038330078125	123.3086929321289	-1589.998901367188	981.7318725585938	-8.411830902099609	-1588.969360351562	1054.920776367188	59.20446395874023	-1359.617065429688	1222.84765625	58.80562210083008	-1601.974243164062	1157.244873046875	55.4418830871582	-1577.66796875	1408.276000976562	42.84591293334961	-1417.629028320312	1339.35498046875	56.09123229980469	-1613.9677734375	1260.367431640625	110.1181411743164	-1586.536010742188	1370.414306640625	-60.67680358886719	-1499.385986328125	1390.563232421875	-108.3017120361328	-1518.172973632812	1271.927978515625	-178.5281524658203	-1492.72412109375	1076.70849609375	-204.2439270019531	-1548.906616210938	1051.978393554688	-145.0028686523438	-1380.570922851562	876.1151123046875	-151.3022613525391	-1422.297729492188	857.6112670898438	-218.9363861083984	-1464.904418945312	975.4436645507812	-211.8724212646484	-1397.1533203125	774.475341796875	-208.837646484375	-1348.342651367188	782.1571655273438	-168.9537048339844	-1527.245239257812	1391.724487304688	203.0338439941406	-1541.128540039062	1327.297973632812	261.7095031738281	-1533.591430664062	1068.345947265625	311.2686767578125	-1550.79443359375	1054.993774414062	218.195068359375	-1396.10888671875	859.5640869140625	295.32666015625	-1440.141479492188	849.3768920898438	354.9890747070312	-1506.083618164062	1004.912231445312	331.1566772460938	-1390.514770507812	687.1058349609375	305.8603515625	-1429.453369140625	759.822509765625	359.0167846679688	-1541.98681640625	1605.48095703125	122.6420593261719	-1383.360473632812	1599.84619140625	0.1857300698757172	-1407.790649414062	1608.434692382812	120.1967086791992	-1526.300415039062	1592.624877929688	-39.4796142578125	-1504.662231445312	968.6591796875	-122.3719863891602	-1366.795776367188	978.088623046875	179.2245941162109	-1388.890869140625	967.9329833984375	-84.80715942382812	-1464.893676757812	475.7583923339844	-96.75327301025391	-1469.029541015625	618.3236083984375	-110.9657821655273	-1562.436889648438	45.21328353881836	-49.13755416870117	-1515.0751953125	244.2510528564453	-85.16959381103516	-1346.501953125	47.18228149414062	16.32392883300781	-1428.414428710938	45.06262588500977	46.12929916381836	-1434.9892578125	41.91899490356445	-59.56277847290039	-1601.089233398438	42.0635986328125	7.41786003112793	-1470.824096679688	478.1050720214844	219.5056304931641	-1423.910400390625	740.04736328125	236.6361389160156	-1517.511352539062	56.31381225585938	187.1361694335938	-1463.403564453125	352.3204345703125	205.3586273193359	-1338.79931640625	40.50542449951172	123.0961227416992	-1415.433837890625	46.18869781494141	94.18134307861328	-1433.950439453125	46.89396286010742	193.2169036865234	-1591.159301757812	44.79608917236328	134.6909942626953	-1372.357421875	757.260009765625	321.65380859375	-1499.271606445312	966.7225341796875	236.7079010009766	-1362.5859375	697.7901611328125	-152.9956359863281	nan	nan	nan	
64	0.63	-1584.044555664062	991.3407592773438	123.1945343017578	-1589.998168945312	981.7322998046875	-8.534080505371094	-1588.929321289062	1054.881225585938	59.04817581176758	-1359.581787109375	1222.85546875	58.72537231445312	-1601.951904296875	1157.2119140625	55.33002853393555	-1577.669555664062	1408.2734375	42.77773284912109	-1417.581298828125	1339.384643554688	56.02384185791016	-1613.932495117188	1260.3212890625	110.0043792724609	-1586.510986328125	1370.415283203125	-60.74349212646484	-1499.370361328125	1390.581787109375	-108.3520355224609	-1518.171264648438	1271.94140625	-178.6178283691406	-1492.679077148438	1076.72802734375	-204.3334655761719	-1548.825073242188	1051.989135742188	-145.09765625	-1380.539306640625	876.1207885742188	-151.4425506591797	-1422.272338867188	857.6282958984375	-219.0680999755859	-1464.838745117188	975.4580688476562	-211.9725341796875	-1397.196166992188	774.498046875	-209.0140991210938	-1348.170043945312	782.0928344726562	-169.0845336914062	-1527.282958984375	1391.706298828125	202.9654998779297	-1541.183837890625	1327.28857421875	261.6315307617188	-1533.587036132812	1068.319702148438	311.2096252441406	-1550.78076171875	1054.961547851562	218.1506500244141	-1396.058837890625	859.5775756835938	295.2734069824219	-1440.086059570312	849.3748168945312	354.9601440429688	-1506.071899414062	1004.886596679688	331.1105041503906	-1390.151733398438	687.1594848632812	305.9076232910156	-1429.339599609375	759.8432006835938	359.001708984375	-1541.977416992188	1605.476440429688	122.6221923828125	-1383.35498046875	1599.8173828125	0.1667121648788452	-1407.770874023438	1608.387573242188	120.1687774658203	-1526.266479492188	1592.64599609375	-39.5055046081543	-1504.68798828125	968.6544799804688	-122.5049057006836	-1366.76806640625	978.0906372070312	179.0829620361328	-1388.8671875	967.9136962890625	-84.83855438232422	-1464.857666015625	475.7286987304688	-96.85064697265625	-1469.039428710938	618.3137817382812	-111.089241027832	-1562.429077148438	45.17782592773438	-49.16520309448242	-1515.094116210938	244.2373352050781	-85.23679351806641	-1346.509887695312	47.18547058105469	16.32169914245605	-1428.435180664062	45.06252288818359	46.12775802612305	-1434.993774414062	41.90344619750977	-59.56784057617188	-1601.097900390625	42.11750793457031	7.373825073242188	-1470.78955078125	478.1541442871094	219.4221038818359	-1423.897338867188	740.0625610351562	236.5477905273438	-1517.50830078125	56.31809234619141	187.1189270019531	-1463.380615234375	352.3254089355469	205.3046112060547	-1338.792236328125	40.5069694519043	123.0953063964844	-1415.434692382812	46.17343902587891	94.17667388916016	-1433.947875976562	46.88962173461914	193.2085266113281	-1591.162841796875	44.80699157714844	134.6735687255859	-1372.707763671875	757.1800537109375	321.5980224609375	-1499.2880859375	966.7078247070312	236.6097412109375	-1362.463623046875	697.8187255859375	-153.0896148681641	nan	nan	nan	
